<mxfile host="65bd71144e">
    <diagram id="Pvk16Yk9mmTxDUWuedHs" name="Page-2">
        <mxGraphModel dx="777" dy="-112" grid="1" gridSize="10" guides="1" tooltips="1" connect="1" arrows="1" fold="1" page="0" pageScale="1" pageWidth="827" pageHeight="1169" math="0" shadow="0">
            <root>
                <mxCell id="Tb9AdFsS8pXjhhtc2Pzk-0"/>
                <mxCell id="Tb9AdFsS8pXjhhtc2Pzk-1" parent="Tb9AdFsS8pXjhhtc2Pzk-0"/>
                <mxCell id="17" value="" style="endArrow=classic;html=1;exitX=0.5;exitY=1;exitDx=0;exitDy=0;entryX=0.5;entryY=0;entryDx=0;entryDy=0;" parent="Tb9AdFsS8pXjhhtc2Pzk-1" source="64" edge="1" target="66">
                    <mxGeometry width="50" height="50" relative="1" as="geometry">
                        <mxPoint x="439.29" y="1430" as="sourcePoint"/>
                        <mxPoint x="439.29" y="1513" as="targetPoint"/>
                    </mxGeometry>
                </mxCell>
                <mxCell id="33" value="Choisir un menu&amp;nbsp;" style="rounded=0;whiteSpace=wrap;html=1;sketch=0;" vertex="1" parent="Tb9AdFsS8pXjhhtc2Pzk-1">
                    <mxGeometry x="100" y="1040" width="120" height="60" as="geometry"/>
                </mxCell>
                <mxCell id="35" value="&lt;font style=&quot;font-size: 10px&quot;&gt;&lt;i&gt;[panier vide]&lt;/i&gt;&lt;/font&gt;" style="text;html=1;strokeColor=none;fillColor=none;align=center;verticalAlign=middle;whiteSpace=wrap;rounded=0;sketch=0;" vertex="1" parent="Tb9AdFsS8pXjhhtc2Pzk-1">
                    <mxGeometry x="280" y="940" width="70" height="20" as="geometry"/>
                </mxCell>
                <mxCell id="37" value="" style="endArrow=none;html=1;exitX=0;exitY=0.5;exitDx=0;exitDy=0;endFill=0;" edge="1" parent="Tb9AdFsS8pXjhhtc2Pzk-1" source="38">
                    <mxGeometry width="50" height="50" relative="1" as="geometry">
                        <mxPoint x="394" y="965" as="sourcePoint"/>
                        <mxPoint x="160" y="960" as="targetPoint"/>
                    </mxGeometry>
                </mxCell>
                <mxCell id="38" value="" style="rhombus;whiteSpace=wrap;html=1;rounded=0;sketch=0;" vertex="1" parent="Tb9AdFsS8pXjhhtc2Pzk-1">
                    <mxGeometry x="410" y="930" width="60" height="60" as="geometry"/>
                </mxCell>
                <mxCell id="39" value="" style="endArrow=classic;html=1;" edge="1" parent="Tb9AdFsS8pXjhhtc2Pzk-1">
                    <mxGeometry width="50" height="50" relative="1" as="geometry">
                        <mxPoint x="160" y="960" as="sourcePoint"/>
                        <mxPoint x="160" y="1040" as="targetPoint"/>
                    </mxGeometry>
                </mxCell>
                <mxCell id="40" value="" style="endArrow=classic;html=1;exitX=0.5;exitY=1;exitDx=0;exitDy=0;entryX=0.5;entryY=0;entryDx=0;entryDy=0;" edge="1" parent="Tb9AdFsS8pXjhhtc2Pzk-1" source="33" target="41">
                    <mxGeometry width="50" height="50" relative="1" as="geometry">
                        <mxPoint x="240" y="1120" as="sourcePoint"/>
                        <mxPoint x="160" y="1150" as="targetPoint"/>
                    </mxGeometry>
                </mxCell>
                <mxCell id="57" value="" style="edgeStyle=orthogonalEdgeStyle;curved=0;rounded=1;sketch=0;orthogonalLoop=1;jettySize=auto;html=1;endArrow=none;endFill=0;" edge="1" parent="Tb9AdFsS8pXjhhtc2Pzk-1" source="41" target="44">
                    <mxGeometry relative="1" as="geometry"/>
                </mxCell>
                <mxCell id="41" value="Sélectionner la quantité à ajouter" style="rounded=0;whiteSpace=wrap;html=1;sketch=0;" vertex="1" parent="Tb9AdFsS8pXjhhtc2Pzk-1">
                    <mxGeometry x="100" y="1160" width="120" height="60" as="geometry"/>
                </mxCell>
                <mxCell id="43" value="" style="endArrow=classic;html=1;exitX=0.5;exitY=1;exitDx=0;exitDy=0;entryX=0.5;entryY=0;entryDx=0;entryDy=0;" edge="1" parent="Tb9AdFsS8pXjhhtc2Pzk-1">
                    <mxGeometry width="50" height="50" relative="1" as="geometry">
                        <mxPoint x="159.71" y="1220" as="sourcePoint"/>
                        <mxPoint x="159.71" y="1280" as="targetPoint"/>
                    </mxGeometry>
                </mxCell>
                <mxCell id="44" value="Confirmer l'ajout du (ou des) menu(s)&amp;nbsp;" style="rounded=0;whiteSpace=wrap;html=1;sketch=0;" vertex="1" parent="Tb9AdFsS8pXjhhtc2Pzk-1">
                    <mxGeometry x="100" y="1280" width="120" height="60" as="geometry"/>
                </mxCell>
                <mxCell id="45" value="" style="endArrow=classic;html=1;entryX=0.5;entryY=0;entryDx=0;entryDy=0;" edge="1" parent="Tb9AdFsS8pXjhhtc2Pzk-1" target="80">
                    <mxGeometry width="50" height="50" relative="1" as="geometry">
                        <mxPoint x="720" y="1110" as="sourcePoint"/>
                        <mxPoint x="720" y="1150" as="targetPoint"/>
                    </mxGeometry>
                </mxCell>
                <mxCell id="46" value="" style="endArrow=none;html=1;endFill=0;" edge="1" parent="Tb9AdFsS8pXjhhtc2Pzk-1">
                    <mxGeometry width="50" height="50" relative="1" as="geometry">
                        <mxPoint x="720" y="960" as="sourcePoint"/>
                        <mxPoint x="470" y="959.66" as="targetPoint"/>
                    </mxGeometry>
                </mxCell>
                <mxCell id="47" value="" style="endArrow=none;html=1;endFill=0;entryX=0.5;entryY=0;entryDx=0;entryDy=0;" edge="1" parent="Tb9AdFsS8pXjhhtc2Pzk-1" target="48">
                    <mxGeometry width="50" height="50" relative="1" as="geometry">
                        <mxPoint x="720" y="960" as="sourcePoint"/>
                        <mxPoint x="720" y="1040" as="targetPoint"/>
                    </mxGeometry>
                </mxCell>
                <mxCell id="48" value="" style="rhombus;whiteSpace=wrap;html=1;rounded=0;sketch=0;" vertex="1" parent="Tb9AdFsS8pXjhhtc2Pzk-1">
                    <mxGeometry x="690" y="1050" width="60" height="60" as="geometry"/>
                </mxCell>
                <mxCell id="49" value="" style="endArrow=classic;html=1;entryX=0.993;entryY=0.668;entryDx=0;entryDy=0;entryPerimeter=0;" edge="1" parent="Tb9AdFsS8pXjhhtc2Pzk-1" target="33">
                    <mxGeometry width="50" height="50" relative="1" as="geometry">
                        <mxPoint x="690" y="1080" as="sourcePoint"/>
                        <mxPoint x="440" y="1080" as="targetPoint"/>
                    </mxGeometry>
                </mxCell>
                <mxCell id="50" value="&lt;font style=&quot;font-size: 10px&quot;&gt;&lt;i&gt;[panier non vide]&amp;nbsp;&lt;/i&gt;&lt;/font&gt;" style="text;html=1;strokeColor=none;fillColor=none;align=center;verticalAlign=middle;whiteSpace=wrap;rounded=0;sketch=0;" vertex="1" parent="Tb9AdFsS8pXjhhtc2Pzk-1">
                    <mxGeometry x="530" y="940" width="80" height="20" as="geometry"/>
                </mxCell>
                <mxCell id="52" value="&lt;font style=&quot;font-size: 10px&quot;&gt;&lt;i&gt;[ajouter un autre menu]&lt;/i&gt;&lt;/font&gt;" style="text;html=1;strokeColor=none;fillColor=none;align=center;verticalAlign=middle;whiteSpace=wrap;rounded=0;sketch=0;" vertex="1" parent="Tb9AdFsS8pXjhhtc2Pzk-1">
                    <mxGeometry x="460" y="1060" width="150" height="20" as="geometry"/>
                </mxCell>
                <mxCell id="54" value="&lt;font style=&quot;font-size: 10px&quot;&gt;&lt;i&gt;[ouverture du panier]&lt;/i&gt;&lt;/font&gt;" style="text;html=1;strokeColor=none;fillColor=none;align=center;verticalAlign=middle;whiteSpace=wrap;rounded=0;sketch=0;" vertex="1" parent="Tb9AdFsS8pXjhhtc2Pzk-1">
                    <mxGeometry x="590" y="1120" width="150" height="20" as="geometry"/>
                </mxCell>
                <mxCell id="55" value="Sélectionner le menu à modifier&amp;nbsp;" style="rounded=0;whiteSpace=wrap;html=1;sketch=0;" vertex="1" parent="Tb9AdFsS8pXjhhtc2Pzk-1">
                    <mxGeometry x="480" y="1240" width="120" height="60" as="geometry"/>
                </mxCell>
                <mxCell id="56" value="Modifier la quantité du menu" style="rounded=0;whiteSpace=wrap;html=1;sketch=0;" vertex="1" parent="Tb9AdFsS8pXjhhtc2Pzk-1">
                    <mxGeometry x="480" y="1330" width="120" height="60" as="geometry"/>
                </mxCell>
                <mxCell id="58" value="" style="endArrow=classic;html=1;exitX=0;exitY=0.5;exitDx=0;exitDy=0;" edge="1" parent="Tb9AdFsS8pXjhhtc2Pzk-1" source="90">
                    <mxGeometry width="50" height="50" relative="1" as="geometry">
                        <mxPoint x="840" y="1350" as="sourcePoint"/>
                        <mxPoint x="600" y="1270" as="targetPoint"/>
                    </mxGeometry>
                </mxCell>
                <mxCell id="60" value="" style="endArrow=none;html=1;exitX=0.5;exitY=1;exitDx=0;exitDy=0;endFill=0;" edge="1" parent="Tb9AdFsS8pXjhhtc2Pzk-1">
                    <mxGeometry width="50" height="50" relative="1" as="geometry">
                        <mxPoint x="159.41000000000003" y="1340" as="sourcePoint"/>
                        <mxPoint x="159" y="1520" as="targetPoint"/>
                    </mxGeometry>
                </mxCell>
                <mxCell id="61" value="" style="endArrow=none;html=1;endFill=0;exitX=0.5;exitY=1;exitDx=0;exitDy=0;" edge="1" parent="Tb9AdFsS8pXjhhtc2Pzk-1" source="87">
                    <mxGeometry width="50" height="50" relative="1" as="geometry">
                        <mxPoint x="720" y="1470" as="sourcePoint"/>
                        <mxPoint x="540" y="1520" as="targetPoint"/>
                    </mxGeometry>
                </mxCell>
                <mxCell id="62" value="" style="endArrow=classic;html=1;entryX=0;entryY=0.5;entryDx=0;entryDy=0;endFill=1;" edge="1" parent="Tb9AdFsS8pXjhhtc2Pzk-1" target="64">
                    <mxGeometry width="50" height="50" relative="1" as="geometry">
                        <mxPoint x="160" y="1520" as="sourcePoint"/>
                        <mxPoint x="360" y="1400" as="targetPoint"/>
                    </mxGeometry>
                </mxCell>
                <mxCell id="64" value="Mise à jour du panier" style="rounded=0;whiteSpace=wrap;html=1;sketch=0;" vertex="1" parent="Tb9AdFsS8pXjhhtc2Pzk-1">
                    <mxGeometry x="380" y="1490" width="120" height="60" as="geometry"/>
                </mxCell>
                <mxCell id="66" value="" style="rhombus;whiteSpace=wrap;html=1;rounded=0;sketch=0;" vertex="1" parent="Tb9AdFsS8pXjhhtc2Pzk-1">
                    <mxGeometry x="410" y="1590" width="60" height="60" as="geometry"/>
                </mxCell>
                <mxCell id="68" value="" style="endArrow=none;html=1;" edge="1" parent="Tb9AdFsS8pXjhhtc2Pzk-1">
                    <mxGeometry width="50" height="50" relative="1" as="geometry">
                        <mxPoint x="80" y="1620" as="sourcePoint"/>
                        <mxPoint x="410" y="1620" as="targetPoint"/>
                    </mxGeometry>
                </mxCell>
                <mxCell id="70" value="" style="endArrow=classic;html=1;endFill=1;" edge="1" parent="Tb9AdFsS8pXjhhtc2Pzk-1">
                    <mxGeometry width="50" height="50" relative="1" as="geometry">
                        <mxPoint x="438.57" y="1650" as="sourcePoint"/>
                        <mxPoint x="438.57" y="1700" as="targetPoint"/>
                    </mxGeometry>
                </mxCell>
                <mxCell id="71" value="" style="endArrow=none;html=1;" edge="1" parent="Tb9AdFsS8pXjhhtc2Pzk-1">
                    <mxGeometry width="50" height="50" relative="1" as="geometry">
                        <mxPoint x="80" y="1620" as="sourcePoint"/>
                        <mxPoint x="80" y="920" as="targetPoint"/>
                    </mxGeometry>
                </mxCell>
                <mxCell id="72" value="" style="endArrow=none;html=1;" edge="1" parent="Tb9AdFsS8pXjhhtc2Pzk-1">
                    <mxGeometry width="50" height="50" relative="1" as="geometry">
                        <mxPoint x="440" y="920" as="sourcePoint"/>
                        <mxPoint x="80" y="920" as="targetPoint"/>
                        <Array as="points"/>
                    </mxGeometry>
                </mxCell>
                <mxCell id="73" value="" style="endArrow=none;html=1;exitX=0.5;exitY=0;exitDx=0;exitDy=0;endFill=0;startArrow=classic;startFill=1;" edge="1" parent="Tb9AdFsS8pXjhhtc2Pzk-1" source="38">
                    <mxGeometry width="50" height="50" relative="1" as="geometry">
                        <mxPoint x="610" y="930" as="sourcePoint"/>
                        <mxPoint x="440" y="920" as="targetPoint"/>
                        <Array as="points">
                            <mxPoint x="440" y="920"/>
                        </Array>
                    </mxGeometry>
                </mxCell>
                <mxCell id="75" value="&lt;span style=&quot;font-size: 10px&quot;&gt;&lt;i&gt;[panier fini]&lt;/i&gt;&lt;/span&gt;" style="text;html=1;strokeColor=none;fillColor=none;align=center;verticalAlign=middle;whiteSpace=wrap;rounded=0;sketch=0;" vertex="1" parent="Tb9AdFsS8pXjhhtc2Pzk-1">
                    <mxGeometry x="330" y="1660" width="150" height="20" as="geometry"/>
                </mxCell>
                <mxCell id="77" value="Valider la commande" style="rounded=0;whiteSpace=wrap;html=1;sketch=0;" vertex="1" parent="Tb9AdFsS8pXjhhtc2Pzk-1">
                    <mxGeometry x="380" y="1700" width="120" height="60" as="geometry"/>
                </mxCell>
                <mxCell id="79" value="&lt;span style=&quot;font-size: 10px&quot;&gt;&lt;i&gt;[autres ajouts ou modification]&lt;/i&gt;&lt;/span&gt;" style="text;html=1;strokeColor=none;fillColor=none;align=center;verticalAlign=middle;whiteSpace=wrap;rounded=0;sketch=0;" vertex="1" parent="Tb9AdFsS8pXjhhtc2Pzk-1">
                    <mxGeometry x="150" y="1600" width="150" height="20" as="geometry"/>
                </mxCell>
                <mxCell id="80" value="Ouverture du panier" style="rounded=0;whiteSpace=wrap;html=1;sketch=0;" vertex="1" parent="Tb9AdFsS8pXjhhtc2Pzk-1">
                    <mxGeometry x="660" y="1160" width="120" height="60" as="geometry"/>
                </mxCell>
                <mxCell id="85" style="edgeStyle=orthogonalEdgeStyle;curved=0;rounded=1;sketch=0;orthogonalLoop=1;jettySize=auto;html=1;exitX=0.5;exitY=1;exitDx=0;exitDy=0;startArrow=classic;startFill=1;endArrow=none;endFill=0;" edge="1" parent="Tb9AdFsS8pXjhhtc2Pzk-1" source="75" target="75">
                    <mxGeometry relative="1" as="geometry"/>
                </mxCell>
                <mxCell id="87" value="Confirmer la modification&amp;nbsp;" style="rounded=0;whiteSpace=wrap;html=1;sketch=0;" vertex="1" parent="Tb9AdFsS8pXjhhtc2Pzk-1">
                    <mxGeometry x="480" y="1420" width="120" height="60" as="geometry"/>
                </mxCell>
                <mxCell id="88" value="" style="endArrow=classic;html=1;exitX=0.5;exitY=1;exitDx=0;exitDy=0;entryX=0.5;entryY=0;entryDx=0;entryDy=0;" edge="1" parent="Tb9AdFsS8pXjhhtc2Pzk-1" source="55" target="56">
                    <mxGeometry width="50" height="50" relative="1" as="geometry">
                        <mxPoint x="720" y="1400" as="sourcePoint"/>
                        <mxPoint x="510" y="1330" as="targetPoint"/>
                        <Array as="points"/>
                    </mxGeometry>
                </mxCell>
                <mxCell id="90" value="" style="rhombus;whiteSpace=wrap;html=1;rounded=0;sketch=0;" vertex="1" parent="Tb9AdFsS8pXjhhtc2Pzk-1">
                    <mxGeometry x="690" y="1240" width="60" height="60" as="geometry"/>
                </mxCell>
                <mxCell id="92" value="" style="endArrow=none;html=1;exitX=0.5;exitY=0;exitDx=0;exitDy=0;" edge="1" parent="Tb9AdFsS8pXjhhtc2Pzk-1" source="90">
                    <mxGeometry width="50" height="50" relative="1" as="geometry">
                        <mxPoint x="670" y="1270" as="sourcePoint"/>
                        <mxPoint x="720" y="1220" as="targetPoint"/>
                    </mxGeometry>
                </mxCell>
                <mxCell id="96" value="" style="endArrow=classic;html=1;entryX=0.5;entryY=0;entryDx=0;entryDy=0;" edge="1" parent="Tb9AdFsS8pXjhhtc2Pzk-1" target="87">
                    <mxGeometry width="50" height="50" relative="1" as="geometry">
                        <mxPoint x="540" y="1390" as="sourcePoint"/>
                        <mxPoint x="544.9999999999998" y="1340" as="targetPoint"/>
                        <Array as="points"/>
                    </mxGeometry>
                </mxCell>
                <mxCell id="97" value="" style="endArrow=classic;html=1;entryX=1;entryY=0.5;entryDx=0;entryDy=0;" edge="1" parent="Tb9AdFsS8pXjhhtc2Pzk-1" target="64">
                    <mxGeometry width="50" height="50" relative="1" as="geometry">
                        <mxPoint x="540" y="1520" as="sourcePoint"/>
                        <mxPoint x="740" y="1400" as="targetPoint"/>
                    </mxGeometry>
                </mxCell>
                <mxCell id="98" value="&lt;font style=&quot;font-size: 10px&quot;&gt;&lt;i&gt;[modification]&lt;/i&gt;&lt;/font&gt;" style="text;html=1;strokeColor=none;fillColor=none;align=center;verticalAlign=middle;whiteSpace=wrap;rounded=0;sketch=0;" vertex="1" parent="Tb9AdFsS8pXjhhtc2Pzk-1">
                    <mxGeometry x="580" y="1250" width="150" height="20" as="geometry"/>
                </mxCell>
                <mxCell id="100" value="" style="endArrow=none;html=1;" edge="1" parent="Tb9AdFsS8pXjhhtc2Pzk-1">
                    <mxGeometry width="50" height="50" relative="1" as="geometry">
                        <mxPoint x="720" y="1620" as="sourcePoint"/>
                        <mxPoint x="720" y="1300" as="targetPoint"/>
                    </mxGeometry>
                </mxCell>
                <mxCell id="101" value="" style="endArrow=none;html=1;" edge="1" parent="Tb9AdFsS8pXjhhtc2Pzk-1">
                    <mxGeometry width="50" height="50" relative="1" as="geometry">
                        <mxPoint x="470" y="1620" as="sourcePoint"/>
                        <mxPoint x="720" y="1620" as="targetPoint"/>
                    </mxGeometry>
                </mxCell>
                <mxCell id="102" value="&lt;span style=&quot;font-size: 10px&quot;&gt;&lt;i&gt;[pas de mofication]&lt;/i&gt;&lt;/span&gt;" style="text;html=1;strokeColor=none;fillColor=none;align=center;verticalAlign=middle;whiteSpace=wrap;rounded=0;sketch=0;" vertex="1" parent="Tb9AdFsS8pXjhhtc2Pzk-1">
                    <mxGeometry x="690" y="1320" width="150" height="20" as="geometry"/>
                </mxCell>
                <mxCell id="105" value="Enregistrement de la commande" style="rounded=0;whiteSpace=wrap;html=1;sketch=0;" vertex="1" parent="Tb9AdFsS8pXjhhtc2Pzk-1">
                    <mxGeometry x="380" y="1800" width="120" height="60" as="geometry"/>
                </mxCell>
                <mxCell id="106" value="" style="endArrow=classic;html=1;exitX=0.5;exitY=1;exitDx=0;exitDy=0;entryX=0.5;entryY=0;entryDx=0;entryDy=0;" edge="1" parent="Tb9AdFsS8pXjhhtc2Pzk-1" source="77" target="105">
                    <mxGeometry width="50" height="50" relative="1" as="geometry">
                        <mxPoint x="430" y="1750" as="sourcePoint"/>
                        <mxPoint x="480" y="1700" as="targetPoint"/>
                    </mxGeometry>
                </mxCell>
            </root>
        </mxGraphModel>
    </diagram>
</mxfile>